# xmcd
#
# Track frame offsets:
#	150
#	15390
#	35147
#	57805
#	73730
#	96017
#	114497
#	130435
#	147402
#	157815
#	174520
#	187117
#
# Disc length: 2760 seconds
#
# Revision: 1
# Processed by: cddbd v1.5.2PL0 Copyright (c) Steve Scherf et al.
# Submitted via: audiograbber 1.83.01
#
DISCID=a60ac60c
DTITLE=TipTop Entertainment Graphics - [37-06] TEG6009
DYEAR=1900
DGENRE=Karaoke CDG
TTITLE0=Dionne Warwick - I'll Never Love This Way Again
TTITLE1=Larry Graham  - One In A Million You
TTITLE2=Bette Midler - Wind Beneath My Wings
TTITLE3=Nat King Cole - When I Fall In Love
TTITLE4=Kenny Rogers - Through The Years
TTITLE5=Barry Manilow - I Write The Songs
TTITLE6=Morris Albert - Feelings
TTITLE7=Righteous brothers - Unchained Melody
TTITLE8=Frank Sinatra - It Had To Be You
TTITLE9=Barry Manilow - Looks Like We Made It
TTITLE10=Johnny mathis - Twelfth of Never, The
TTITLE11=Air Supply - Lost In Love
EXTD=
EXTT0=
EXTT1=
EXTT2=
EXTT3=
EXTT4=
EXTT5=
EXTT6=
EXTT7=
EXTT8=
EXTT9=
EXTT10=
EXTT11=
PLAYORDER=
